PathFileType	4	(X/Y/Z)	D:\Share\Shared_Data\Ergonomics\Sit To Stand Pertubation\S2\S2 Cal 01.trc
DataRate	CameraRate	NumFrames	NumMarkers	Units	OrigDataRate	OrigDataStartFrame	OrigNumFrames	
100	100	9	21	mm	100	129	206
Frame#	Time	R_ASIS			R_Pelvis			V_Sacral			L_Pelvis			L_ASIS			Clavical			R_Acromium			L_Acromium			Sternum			Torso			R_Thigh_Med			R_Thigh_Lat			R_Thigh			R_Shank_Med			R_Shank_Lat			R_Shank			R_Heel			R_Toe			RAJC			RHJC			RKJC			
		X1	Y1	Z1	X2	Y2	Z2	X3	Y3	Z3	X4	Y4	Z4	X5	Y5	Z5	X6	Y6	Z6	X7	Y7	Z7	X8	Y8	Z8	X9	Y9	Z9	X10	Y10	Z10	X11	Y11	Z11	X12	Y12	Z12	X13	Y13	Z13	X14	Y14	Z14	X15	Y15	Z15	X16	Y16	Z16	X17	Y17	Z17	X18	Y18	Z18	X19	Y19	Z19	X20	Y20	Z20	X21	Y21	Z21	

129	1.28	424.897	1026.2789	127.42069	351.17236	1029.6681	168.39928	216.74159	1040.5255	-2.0723562	329.84918	1041.1083	-173.86668	417.99396	1038.1611	-137.93704	407.83554	1449.5665	-12.234545	305.48947	1476.3446	194.53636	298.84366	1481.7972	-200.07683	451.52615	1288.9821	-15.545077	416.52759	1409.6285	-126.47263	339.86215	494.61102	63.02108	334.55817	516.60229	152.35825	429.36832	674.18195	127.62595	304.681	106.39085	69.156372	283.3576	100.66776	160.47618	302.16193	371.98053	183.58836	204.52831	60.456131	111.48624	441.85748	64.611641	108.782	294.0193	103.529305	114.816276	361.1764931	939.8841025	87.28772051	337.21016	505.606655	107.689665
130	1.29	424.90256	1026.2764	127.42725	351.16895	1029.665	168.39076	216.73563	1040.5087	-2.0904267	329.85706	1041.1	-173.86775	417.9823	1038.1117	-137.95532	407.90063	1449.5626	-12.211596	305.55872	1476.3608	194.51978	298.90515	1481.8191	-200.06186	451.53473	1288.9767	-15.525002	416.58652	1409.629	-126.44358	339.86115	494.61008	63.024231	334.5358	516.61127	152.34912	429.35321	674.19379	127.63488	304.66629	106.37337	69.159447	283.33865	100.66851	160.47375	302.13422	371.97455	183.58833	204.53383	60.459621	111.50163	441.86389	64.606796	108.77498	294.00247	103.52094	114.8165985	361.1752267	939.8698873	87.30984738	337.198475	505.610675	107.6866755
131	1.3	424.9071	1026.2782	127.42023	351.12814	1029.6685	168.36786	216.731	1040.5197	-2.105365	329.94199	1041.0991	-173.85757	418.27609	1038.2278	-137.89536	407.93497	1449.5647	-12.179911	305.60446	1476.3624	194.52959	298.99136	1481.8937	-199.96555	451.56116	1288.9802	-15.503149	416.65134	1409.6387	-126.4233	339.84119	494.60855	63.016655	334.52817	516.6015	152.35855	429.33994	674.1886	127.63667	304.68494	106.38674	69.151352	283.34775	100.67194	160.48055	302.14191	371.98163	183.58789	204.53799	60.465168	111.52045	441.86383	64.616287	108.78265	294.016345	103.52934	114.815951	361.2075247	939.8973636	87.20810444	337.18468	505.605025	107.6876025
132	1.31	424.91678	1026.2852	127.42471	351.12201	1029.6656	168.35677	216.74109	1040.4987	-2.1492295	329.9913	1041.0848	-173.86082	418.134	1038.1298	-137.93524	407.97086	1449.5551	-12.134511	305.67255	1476.3748	194.57381	299.01752	1481.8782	-199.96976	451.61627	1288.9836	-15.468646	416.72192	1409.6617	-126.37362	339.84894	494.61465	63.019432	334.52097	516.61182	152.34518	429.33194	674.1806	127.64101	304.68402	106.38525	69.15683	283.35437	100.67065	160.47992	302.13354	371.99326	183.59296	204.5248	60.467247	111.49179	441.85336	64.601875	108.79085	294.019195	103.52795	114.818375	361.20313	939.8809315	87.27564278	337.184955	505.613235	107.682306
133	1.32	424.91486	1026.2767	127.40563	351.10641	1029.668	168.3105	216.7683	1040.4918	-2.1617813	330.05042	1041.0796	-173.87013	418.27417	1038.1588	-137.92241	408.0098	1449.5568	-12.075786	305.7027	1476.3868	194.6299	299.08212	1481.9177	-199.89893	451.6615	1288.9889	-15.435949	416.78528	1409.6919	-126.30974	339.82538	494.60342	63.014046	334.51364	516.61206	152.3504	429.33405	674.19019	127.63712	304.66983	106.38191	69.153381	283.36276	100.67442	160.4904	302.1304	371.992	183.5732	204.54073	60.455433	111.4976	441.8605	64.607796	108.77925	294.016295	103.528165	114.8218905	361.2193416	939.8843053	87.2160525	337.16951	505.60774	107.682223
134	1.33	424.96988	1026.2793	127.40936	351.07764	1029.6659	168.30159	216.78426	1040.4847	-2.2056811	330.12439	1041.0713	-173.89905	418.28149	1038.1278	-137.93268	408.04486	1449.5597	-12.016418	305.71973	1476.3929	194.68134	299.22662	1482.0289	-199.76414	451.71503	1288.9867	-15.372117	416.85751	1409.7217	-126.25645	339.90613	494.62289	63.005196	334.49722	516.60614	152.34628	429.31445	674.19092	127.64249	304.67328	106.3827	69.161201	283.34641	100.67132	160.48232	302.11066	371.99121	183.57027	204.52814	60.458664	111.4805	441.86163	64.621346	108.7834	294.009845	103.52701	114.8217605	361.2622274	939.8787074	87.2399529	337.201675	505.614515	107.675738
135	1.34	424.96921	1026.2841	127.40532	351.06802	1029.6661	168.26361	216.75386	1040.4299	-2.3278205	330.17773	1041.0702	-173.93123	418.37405	1038.1176	-137.94333	408.07687	1449.5503	-11.96146	305.70679	1476.375	194.7048	299.31345	1482.0533	-199.69998	451.80475	1288.9866	-15.320087	416.92133	1409.7585	-126.17879	339.93646	494.62509	62.998241	334.50778	516.61176	152.33167	429.33353	674.18829	127.63703	304.67261	106.384	69.173012	283.34641	100.66943	160.48416	302.10709	371.9946	183.57339	204.53615	60.4674	111.50114	441.8544	64.610504	108.80228	294.00951	103.526715	114.828586	361.2827757	939.8634187	87.21686358	337.22212	505.618425	107.6649555
136	1.35	425.0542	1026.2986	127.40092	351.043	1029.671	168.26007	216.79915	1040.3943	-2.3885427	330.24786	1041.0659	-173.96805	418.45502	1038.1443	-137.91693	408.10513	1449.5564	-11.887246	305.70908	1476.3774	194.7692	299.37897	1482.0785	-199.65053	451.82693	1289.0062	-15.249842	416.99258	1409.7899	-126.1026	339.91727	494.61197	62.980473	334.50574	516.60913	152.31606	429.34811	674.1911	127.63248	304.66864	106.37765	69.169472	283.3526	100.68392	160.48276	302.11151	371.99353	183.5464	204.54437	60.452065	111.49072	441.85883	64.602936	108.78981	294.01062	103.530785	114.826116	361.3854019	939.8705351	87.2134459	337.211505	505.61055	107.6482665
137	1.36	425.09067	1026.3147	127.39931	351.02747	1029.665	168.23801	216.85051	1040.41	-2.4079645	330.28439	1041.0635	-174.03201	416.65912	1037.3834	-138.05048	408.14856	1449.5723	-11.811374	305.68796	1476.361	194.80809	299.43903	1482.1166	-199.60648	451.84744	1289.0142	-15.195495	417.05554	1409.8164	-126.02831	339.97427	494.62787	62.984234	334.51221	516.62402	152.30595	429.35349	674.19928	127.63098	304.68607	106.38203	69.157013	283.34662	100.67814	160.47348	302.12158	371.99438	183.52251	204.53459	60.471786	111.48446	441.86548	64.611855	108.7877	294.016345	103.530085	114.8152465	361.2085705	939.8265733	87.88160718	337.24324	505.625945	107.645092
